<?xml version="1.0" encoding="UTF-8"?>
<svg version="1.1" viewBox="0 0 2048 2048" width="1280" height="1280" xmlns="http://www.w3.org/2000/svg">
<path transform="translate(1271,128)" d="m0 0h463l25 2 23 5 22 8 20 10 15 10 13 10 13 12 12 13 13 18 10 18 8 18 7 23 4 24 1 15v453l-1 21-3 20-7 25-9 21-9 16-12 17-10 11-7 8-11 10-15 11-15 9-23 11-26 8-26 4-18 1h-446l-22-1-20-3-19-5-18-7-16-8-15-9-13-10-10-9-17-17-12-16-11-19-8-17-7-22-4-19-2-19v-472l3-24 6-23 8-20 11-21 12-17 12-14 12-12 14-11 15-10 16-9 20-8 17-5 22-4zm0 128-16 4-12 7-10 9-6 7-8 16-3 15v460l3 15 8 16 9 10 11 8 13 6 15 3h458l15-3 16-8 10-8 9-12 6-13 3-16v-456l-2-13-5-13-9-13-11-10-16-8-13-3z" fill="#455BA4"/>
<path transform="translate(311,128)" d="m0 0h463l25 2 23 5 22 8 20 10 15 10 13 10 13 12 12 13 13 18 12 22 8 20 5 17 4 24 1 16v451l-1 22-3 20-5 19-7 18-8 16-9 15-9 12-9 10-7 8-11 10-15 11-15 9-23 11-26 8-26 4-18 1h-446l-22-1-20-3-19-5-18-7-16-8-15-9-13-10-10-9-17-17-12-16-11-19-8-17-7-22-4-19-2-19v-472l3-24 6-23 8-20 11-21 11-16 13-15 12-12 14-11 15-10 16-9 20-8 17-5 22-4zm0 128-16 4-12 7-10 9-6 7-8 16-3 15v460l3 15 8 16 9 10 11 8 13 6 15 3h458l15-3 16-8 10-8 9-12 6-13 3-16v-456l-2-13-5-13-9-13-11-10-16-8-13-3z" fill="#455BA4"/>
<path transform="translate(1272,1088)" d="m0 0h461l26 2 23 5 22 8 20 10 15 10 13 10 13 12 12 13 13 18 10 18 8 18 7 23 4 24 1 15v453l-1 21-3 20-7 25-9 21-9 16-12 17-10 11-7 8-11 10-15 11-15 9-21 10-24 8-21 4-27 2h-446l-22-1-20-3-25-7-21-9-19-11-16-12-10-9-17-17-12-16-11-19-8-17-7-22-4-19-2-19v-472l3-24 6-23 8-20 11-21 12-17 12-14 12-12 14-11 15-10 14-8 19-8 20-6 22-4zm-1 128-16 4-12 7-10 9-6 7-8 16-3 15v460l3 15 8 16 9 10 11 8 13 6 15 3h458l15-3 16-8 10-8 9-12 6-13 3-16v-456l-2-13-5-13-9-13-11-10-16-8-13-3z" fill="#455BA4"/>
<path transform="translate(312,1088)" d="m0 0h461l26 2 23 5 22 8 20 10 15 10 13 10 13 12 12 13 13 18 12 22 8 20 5 17 4 24 1 16v451l-1 22-3 20-5 19-7 18-8 16-9 15-9 12-9 10-7 8-11 10-15 11-15 9-21 10-24 8-21 4-27 2h-446l-22-1-20-3-25-7-21-9-19-11-16-12-10-9-17-17-12-16-11-19-8-17-7-22-4-19-2-19v-472l3-24 6-23 8-20 11-21 11-16 13-15 12-12 14-11 15-10 14-8 19-8 20-6 22-4zm-1 128-16 4-12 7-10 9-6 7-8 16-3 15v460l3 15 8 16 9 10 11 8 13 6 15 3h458l15-3 16-8 10-8 9-12 6-13 3-16v-456l-2-13-5-13-9-13-11-10-16-8-13-3z" fill="#455BA4"/>
<path transform="translate(311,128)" d="m0 0h463l25 2 23 5 22 8 20 10 15 10 13 10 13 12 12 13 13 18 12 22 8 20 5 17 4 24 1 16v159l-1 113-1 60-1 27-3 5-3-1-4-13-2-9-5-8v-7l-4 1v-3h-2v-2h-3l-1-4h-5l-3-2-5 1-4 2-4-3h-6l-4-3h-3l-1 4-3 1-2 6-4-1-5 2h-3v-2h-2l-3-4h-3l-3-6-4-2-3-1-6-7h-3l-5 3-2 6-2 23-1 10v8l-2 16-1 15-1 4v8l-2 2-1-2-1-35-1-353-3-20-5-13-9-13-10-9-16-8-13-3h-465l-16 4-12 7-10 9-7 9-6 13-3 15-2 207v3l-1 6-1 8-2-4-1-11-2-21v-11l-2-17-3-17-4-10-5 2-1-4 1-10h-2l-3-4-12-1-1-2h-10l-1 8-2 2h-5l-2-4-6 2-4-2h-2v-2h-4l-4 2-5-5-7-2v-4l-10-1-1-5v-6l-2-8-7 2-1 11 1 6-4 5-1 5-1 20v12l-2 6 1 3v11l-1 6-1 10v20l-1 18v30l-1 7v23l-1 18-1 20h-1l-1-42-1-287 3-24 6-23 8-20 11-21 11-16 13-15 12-12 14-11 15-10 16-9 20-8 17-5 22-4z" fill="#59ADBB"/>
<path transform="translate(312,1088)" d="m0 0h461l26 2 23 5 22 8 20 10 15 10 13 10 13 12 12 13 13 18 12 22 8 20 5 17 4 24 1 16v159l-1 113-1 60-1 27-3 5-3-1-4-13-2-10-5-7-1-7-4-2-5-4v-2h-5l-5-2-4 2h-4l-5-2-5-1-3-2h-3v4l-4 1-2 6-4-1-5 2h-3v-2h-2l-5-6h-3l-2-5-6-2v-3l-3-1v-2l-5-2-5 3h-2l-3 29-1 11v8l-2 16-1 15-1 4v8l-2 2-1-2-1-35-1-353-3-20-5-13-9-13-10-9-16-8-13-3h-465l-16 4-12 7-10 9-7 9-6 13-3 15-2 207v3l-1 6-1 8-2-4-1-11-2-21v-11l-2-17-3-17-3-8v-3l-6 3-1-4 1-10h-2l-3-4-12-1-1-2h-10l-1 9-7 1-2-4-6 2-4-2h-2v-2h-4l-2 3-3-1-3-5-8-2v-3l-10-2-1-5v-6l-2-8-7 2-1 11 1 7-5 5-1 24v12l-1 1v19l-1 6-1 10v20l-1 18v30l-1 7v23l-1 18-1 12h-1l-1-34-1-287 3-24 6-23 8-20 11-21 11-16 13-15 12-12 14-11 15-10 14-8 19-8 20-6 22-4z" fill="#59AEBC"/>
<path transform="translate(1272,1088)" d="m0 0h461l26 2 23 5 22 8 20 10 15 10 13 10 13 12 12 13 13 18 10 18 8 18 7 23 4 24 1 21-1 307-1 41-1 17-2 2v3l-3-4-2-5-2-12-4-15-4-6-1-5-3 1-2-6-7-4-8-4h-5l1 3h-3v-2h-9l-6-4-1 5h-4v6l-2 2-1-3h-4l-1 2-6 1-3-4v-2l-4-2v-2h-3v-4l-8-1v-3l-3-1-2-6h-4l-4 5h-2l-2 13-1 18-1 9v8l-2 16-1 13-1 6v8l-2 2-1-2-1-35-1-353-3-20-5-13-9-13-10-9-16-8-13-3h-465l-16 4-12 7-10 9-7 9-6 13-3 15-1 111-1 71v32l-1 1-1 8h-1l-2-11v-7l-1-4-1-21-1-10-1-2v-8l-1-1-2-16-3-11-6 2-1-3 1-10h-2l-3-4-8-1-4 2-1-5-7 1h-3v7l-2 1-2 4-4-1-1-5-6 2-9-3v-3h-2l-2 5h-3l-3-5-4-2v2l-3-1-2-4v-2h-7l-2-1-1-4 1-7-2-2v-6h-6l-2 1-1 16-1 5-3 3-1 18v16l-2 6 1 8v8l-1 6-1 16v14l-1 3v45l-1 13v23l-1 7v11l-1 14h-1l-1-30-1-299 3-24 6-23 8-20 11-21 12-17 12-14 12-12 14-11 15-10 14-8 19-8 20-6 22-4z" fill="#59AEBC"/>
<path transform="translate(1271,128)" d="m0 0h463l25 2 23 5 22 8 20 10 15 10 13 10 13 12 12 13 13 18 10 18 8 18 7 23 4 24 1 21-1 307-1 41-1 17-2 2v3l-3-4-2-5-5-25-5-8-1-5-3 1-2-6-7-4-8-4h-5l-1 3-3-2h-8l-5-4v5h-5v6l-2 2-1-3h-4l-1 2-6 1-1-4h-2v-2l-4-2v-2h-2l-1 2v-6l-8-1-1-3-3-3-1-4-6 2-2 3h-2l-2 13-1 18-1 9v8l-1 4v9l-1 3-1 12-1 7v8l-2 2-1-2-1-35-1-353-3-20-5-13-9-13-10-9-16-8-13-3h-465l-16 4-12 7-10 9-7 9-6 13-3 15-1 111-1 71v16l-1 2v7l1 7-1 1-1 8h-1l-2-11v-7l-1-4-1-21v-11l-2-1v-8l-1-1-2-16-3-11-6 2-1-3 1-10h-2l-5-5h-6l-4 2-1-5-7 1h-3v7l-2 1-2 4-4-1-1-5-9 1-6-2v-3h-2l-2 5h-3l-3-5-4-2v2l-3-1-2-4v-2l-9-1-1-4 1-7-2-2-1-6-7 1-1 16-1 5-3 3-1 18v16l-2 6 1 8v8l-1 6-1 16v14l-1 3v45l-1 13v23l-1 7v11l-1 16h-1l-1-32-1-299 3-24 6-23 8-20 11-21 12-17 12-14 12-12 14-11 15-10 16-9 20-8 17-5 22-4z" fill="#59ADBB"/>
<path transform="translate(1919,1280)" d="m0 0h1v447l-1 21-3 20-7 25-9 21-9 16-12 17-10 11-7 8-11 10-15 11-15 9-21 10-24 8-8 1-6-3-9 2-2 1-2-1h-11l-9-1-12 1-5-1-5 2-3-1-5 1-7-1-4 2-4-2-2 2h-4l-1-2h-11l-1-2-7 2-9-1v-1l-13-1h-14v-2l-5-2-5-1-10-1-5-2-7 1-1-2-10-1v2h-4l-1-2-10-1-6-1-3 1-1-2 5-1v-2l-7 1-2-1v-2l-6 1v3l-6-1 1-3-4-1-1-2 2-1-1-1-7-1v2l-5 1-7-3-7-1h-11l-5-3-6 1v1h-6l1-3-6-2h-7l-5-7v-2l-2-1 3-2-5-3-1-3-10-2-6-2v-2l-4-2-5-2-4-2v-3h-2l-2 5-6-1-1-5-4 2-7-5-7 1v-7l-5 2-1 1h-5l-4-5-2-1v3l-5 2-3-1 2-3h3v-2h-7v2l-8 2 1-3-2 1-10-1-2-4v-6h5v-2l-12 2-5 3-4-2-2-2 1-6 5 1 2-1 18-2 6 3 3-5 9-1 1-3-2-3-3 2h-5l-1-2-7-1-4 1-1 2-1-3h-7l-1-3h-2l1-2 8 1h4l-5-1h-14l-1-4 3-2 65-1 1-1 325-1 15-3 16-8 9-7 9-12 6-13 3-16 1-449h1l1 353 1 35 1-3v-7l2-12 1-17 1-7v-10l1-9 1-13 3-13h2l2-4 3-3 4 4 2 4 2 1v3l3-1 5 2v4h3l7 8v2l7-3h4l1 2 2-7 4-1 1-4 4 2 5 1 6 1v2l2-1v-3l7 1 12 6 3 3 1 4h3l2 6 4 7 4 20 2 7 2 5v-2l3-1-1-3 1-14 1-41z" fill="#4B6EAA"/>
<path transform="translate(1919,320)" d="m0 0h1v447l-1 21-3 20-7 25-9 21-9 16-12 17-10 11-7 8-11 10-15 11-15 9-23 11-26 8h-4v-2l-6-1-13 2h-10v-2l-10 1-3 1-4-1h-19l-5 1h-11l-3-1-2 2-4-1h-10l-2-2-3 1-4 1-1-2-9 1v-2h-27l-5-4h-18l-4-2-5-1-3-2-7-1-1 3-5-1v-3l-10 1-7-1-5-1v-1l4-1-6-1 3-3-2-3-5-1v5h-3l2 4-10-1-2-2 4-1-4-4 2-1-6-1-3 2-5-1-1-1-22-2 1-2-3 1-3-2-6 1-1 2h-5l2-2-8-4h-7l-2-5-3-4v-2l2-2-5-2-1-3-16-4-5-5-7-2-1-3h-2l-2 4-2 1-5-3 1-5-4 1-1 2-3-1-2-3-9-2-1-4-5 2h-5v-2h-2v-3l-4-1-2 4-5 1 1-4 2-1-4-1h-2v2l-5 1-3-4 2-3h-3l-3 6-7-1-1-1-1-9-5-1-6 1-1 3-3-1v-2h-2l-1-4 1-3 5 1 5-2 15-1 7 2 1-4 10-1-1-6-3 2h-5l-1-2-7-1-4 1v2h-2v-3h-7l-3-3 8-2-13-1-1-3 3-2 65-1v-1l325-1 15-3 16-8 9-7 9-12 6-13 3-16 1-449h1l1 353 1 35 1-3v-7l2-12v-7l1-2v-8l1-7v-10l1-9 1-13 3-13h2l2-4 1-1h5l2 6 3 1v3l3-1 5 2 1 4h2l4 4v2h2l1 4 7-3h4l1 2 2-7h5v-5l4 2 5 1 6 1 1-1 4-1 7 2 10 6 2 2 1 4h3l2 6 4 7 4 21 3 9 1 1 1-2h2l-1-3 1-14 1-41z" fill="#4B6EAA"/>
<path transform="translate(1272,1088)" d="m0 0h119l20 1 2 2 8 3 18 1 5 1h15l1 1h5l4-1 3 2h3l1-2v2l12 2 1 3 4 1v3l-8 1-7 5-9 2-4 7-1 7h5v3h4v2h7l4 3 1 4-3 2 2 2 4 1v-5l1-1h6l1 3 5-3 4 6 1 4-1 3 4 1 10 2 10 4 5 3 10 3h5l7 3 4 1 1-3 3 2v2h8l2 2 3-2h6l7 3h10l3 2h5l2-1 4 3v2l5-1 18 3 9 1 15 2 13 3 30 5 16 4 15 4 9 5 10 2 6 4-2 1-4-1-1 6-7 1-10-2h-465l-16 4-12 7-10 9-7 9-6 13-3 15-1 111-1 71v32l-1 1-1 8h-1l-2-11v-7l-1-4-1-21-1-10-1-2v-8l-1-1-2-16-3-11-6 2-1-3 1-10h-2l-3-4-8-1-4 2-1-5-7 1h-3v7l-2 1-2 4-4-1-1-5-6 2-9-3v-3h-2l-2 5h-3l-3-5-4-2v2l-3-1-2-4v-2h-7l-2-1-1-4 1-7-2-2v-6h-6l-2 1-1 16-1 5-3 3-1 18v16l-2 6 1 8v8l-1 6-1 16v14l-1 3v45l-1 13v23l-1 7v11l-1 14h-1l-1-30-1-299 3-24 6-23 8-20 11-21 12-17 12-14 12-12 14-11 15-10 14-8 19-8 20-6 22-4z" fill="#55A2B8"/>
<path transform="translate(832,1283)" d="m0 0h1l1 353 1 35 1-3v-7l1-7 1-10 2-19v-10l1-9 3-24 4-4h3l1-2 5 3 3 3 1 3 5 1 3 5 4 2 3 3v2h2v2l5-2 4-1 3 2 2-7h4v-4l-3-1h6l4 3h6l4 3 4-2 5-1 3 2 5 1 5 5 4 2h1l1 8 5 7 5 21 1 2h2l2-6 1-29 1-56 1-113h1v292l-1 22-3 20-5 19-7 18-8 16-9 15-9 12-9 10-7 8-11 10-15 11-15 9-21 10-24 8-8 1-6-3-9 2-2 1-2-1h-19l-1-1-12 1-5-1-5 2-3-1-6 1-6-1-5 1h-4l-5 1-1-2h-11l-1-2-7 2-9-1v-1l-13-1h-14v-2l-5-2-4-1-11-1-5-2-4 1-9-3h-5v2h-4l-3-3h-9l-5-1-3 1-2-2 6-1v-2l-7 1-2-1v-2l-7 1 1 3-6-1 1-3-4-1-1-2 2-1-1-1-7-1v2l-5 1-7-3-7-1h-11l-5-3-6 1-2 2-4-2 1-2-6-2h-7l-5-7v-2l-2-1 3-2-5-3-1-3-10-2-6-3-6-4-5-1-3-4-3 4-6-1-1-5-4 2-3-1-4-4-7 1-2-7-4 3h-5l-4-5-2-1v3l-5 2-3-1 2-3h3v-2h-7v2l-9 2-2-2-8-1-2-4v-6h5v-2l-11 2-5 2-3 1-4-4 1-6 5 1 6-2 14-1 6 3 3-5 9-1-1-6h-3v2h-4l-2-2-7-1-4 1-1 2-1-3h-7l-1-3h-2l1-2 8 1h4l-5-1h-14l-1-4 3-2 65-1 1-1 325-1 15-3 16-8 9-7 9-12 6-13 3-16z" fill="#4B6EAA"/>
<path transform="translate(312,1088)" d="m0 0h118l21 1 3 2 7 3 18 1 5 1h15l1 1h5l4-1 3 2h3v-2l2 1 2 2 9 1 1 3 4 1v3l-8 1-7 5-9 1-2 5-3 7v3h5v3h4v2h7l4 3v4l-2 2 2 2 4 1v-5l4-2 4 2v2l5-3 4 6 1 4-1 4 8 1 10 2 11 6 5 2 10 1 7 3 7-1 1 3h8l3 1 2-1h6l5 3h12l3 2h5 4l2 4 5-1 18 3 9 1 15 2 12 3 15 2 24 5 8 2 11 3 12 6 9 1 8 5-2 1-4-1-1 6-7 1-10-2h-465l-16 4-12 7-10 9-7 9-6 13-3 15-2 207v3l-1 6-1 8-2-4-1-11-2-21v-11l-2-17-3-17-3-8v-3l-6 3-1-4 1-10h-2l-3-4-12-1-1-2h-10l-1 9-7 1-2-4-6 2-4-2h-2v-2h-4l-2 3-3-1-3-5-8-2v-3l-10-2-1-5v-6l-2-8-7 2-1 11 1 7-5 5-1 24v12l-1 1v19l-1 6-1 10v20l-1 18v30l-1 7v23l-1 18-1 12h-1l-1-34-1-287 3-24 6-23 8-20 11-21 11-16 13-15 12-12 14-11 15-10 14-8 19-8 20-6 22-4z" fill="#55A2B8"/>
<path transform="translate(832,323)" d="m0 0h1l1 353 1 35 1-3v-7l1-7 1-10 2-19v-10l1-9 3-24 4-4h3l1-2 5 4 2 2 2 3 5 1 3 5 2 1 5 4v2h2v2l5-2 4-1 3 2 2-7 3-1 1-3-3-1h6l4 3h6l4 3 4-2 5-1 3 2 5 1 1 4h3v2h2l1 2h3l1 7 5 8 5 20 1 2h2l2-6 1-29 1-56 1-113h1v292l-1 22-3 20-5 19-7 18-8 16-9 15-9 12-9 10-7 8-11 10-15 11-15 9-23 11-26 8-6-1-4-2-13 2h-10v-2l-11 1-2 1-16-2-4 1-8 1h-11l-3-1-2 2-4-1h-10l-2-2-3 1-4 1-1-2-9 1v-2h-27l-5-4-16-1-1 2-3-3h-6l-2-2-9-2-1 3-5-1-2-3-8 1-7-1-5-1v-1l4-1-6-1 2-2-1-4-5-1v5h-3l2 4-12-2 4-2-4-4 2-1-5-1-4 2-5-1-9-2-14-1 2-2h-2l-2 1-3-2-6 1-1 2h-5l2-2-8-4h-7l-2-5-3-4v-2l2-2-5-2v-4l-3 1-14-4-5-5-7-2-1-3h-2l-2 4-2 1-5-3 1-5-4 1-1 2-3-1-2-3-9-2-1-4-5 2h-5v-2h-2v-3l-4-1-2 4-5 1 1-4 2-1-4-1h-2v2l-5 1-3-4 2-3h-3l-3 6-7-1-1-1-1-9-5-1-6 3h-4v-2h-2l-1-5 1-2 5 1 3-2 17-1 7 2 1-4 10-1-1-6-3 2h-5l-1-2-7-1-4 1v2h-2v-3h-7l-3-3 8-2-13-1-1-3 3-2 66-1v-1l324-1 15-3 16-8 9-7 9-12 6-13 3-16z" fill="#4B6EAA"/>
<path transform="translate(1271,128)" d="m0 0h173v1l-65 1-2 1 12 2h10l5 1 15 1 19 1 6 1h15l4 3v-2l7-1v3h6l2 2 3 2v2h2l1 4-8 3h-6l-3 4h-3l2 10 5 1-5 4-1 2h3l1-4 5 1 1 2 8 1 5 5 8-1h5l4 5-1 3h-3l5 7 11 2 10 3 3 2v2l6 1 7 3h6l7 3 7-1 6 4h7l7-1 9 3h9l3 2h7l5 3 9 1 21 3 9 1 16 3 22 4 16 2 9 3 5 2 7 1 13 7 9 1 8 5-2 1-4-1-1 6-7 1-10-2h-465l-16 4-12 7-10 9-7 9-6 13-3 15-1 111-1 71v16l-1 2v7l1 7-1 1-1 8h-1l-2-11v-7l-1-4-1-21v-11l-2-1v-8l-1-1-2-16-3-11-6 2-1-3 1-10h-2l-5-5h-6l-4 2-1-5-7 1h-3v7l-2 1-2 4-4-1-1-5-9 1-6-2v-3h-2l-2 5h-3l-3-5-4-2v2l-3-1-2-4v-2l-9-1-1-4 1-7-2-2-1-6-7 1-1 16-1 5-3 3-1 18v16l-2 6 1 8v8l-1 6-1 16v14l-1 3v45l-1 13v23l-1 7v11l-1 16h-1l-1-32-1-299 3-24 6-23 8-20 11-21 12-17 12-14 12-12 14-11 15-10 16-9 20-8 17-5 22-4z" fill="#55A2B8"/>
<path transform="translate(311,128)" d="m0 0h173v1l-71 1 1 2h8l13 1 11 1 28 2 16 1h9l4 3v-2l7-1v3h6l2 2 3 2v2h2l1 4-7 3h-9l-4 8 2 6 4-1 1 3-5 3-1 3h4v-5l5 1v3l6-1 6 3 2 3 8-1h5l4 5-1 3h-3l3 5v2l8 1 16 4 2 4 6 1 6 3h6l8 3 4 1v-2l4 1 5 3h7l7-1 9 3h9l3 2 6-1 4 3 17 3 19 2 14 3 24 4 21 3 9 3 5 2 7 1 13 7 9 1 8 5-2 1-4-1-1 6-7 1-10-2h-465l-16 4-12 7-10 9-7 9-6 13-3 15-2 207v3l-1 6-1 8-2-4-1-11-2-21v-11l-2-17-3-17-4-10-5 2-1-4 1-10h-2l-3-4-12-1-1-2h-10l-1 8-2 2h-5l-2-4-6 2-4-2h-2v-2h-4l-4 2-5-5-7-2v-4l-10-1-1-5v-6l-2-8-7 2-1 11 1 6-4 5-1 5-1 20v12l-2 6 1 3v11l-1 6-1 10v20l-1 18v30l-1 7v23l-1 18-1 20h-1l-1-42-1-287 3-24 6-23 8-20 11-21 11-16 13-15 12-12 14-11 15-10 16-9 20-8 17-5 22-4z" fill="#55A2B8"/>
<path transform="translate(1106,402)" d="m0 0h5l3 8 1 1-1 11h9l1 5 4 3v-2l5 2 2 5h3l2-5h2l2 2 4 2h9l1 5h4l3-5v-6l4-1h7l1 5 4-3h7l4 4v2h2v11h3 3l4 11 2 16 1 1v8l1 1 1 11 1 21 1 10 1 7 2-4-1-14 1-2v-19l1-68h1l1 349 3 15-1 3-3-6v-3l-2-1 1-4-2-1-2-8-2-14-1-23-3-18-3-9-2-1v2l-5 5-3 5-5 1v1l-7-1-8-2-6-4-1-4h-5l-2-4-4-1-1-1-7 1h-3-7l1-4 4-1v-2l-9 1-5-2-4-7-4-2-10 1-4-4-3 1-1 5-1 6-1 9-2-1v9l-2 3v7l-2 5-1 4h-2l-1-37v-81h1l1 10v-14l1-10v-24l1-7v-45l1-2v-20l1-10 1-12v-7l-1-4 2-7v-22l2-13 3-1v-12l1-8z" fill="#4A6DA9"/>
<path transform="translate(1106,1362)" d="m0 0 6 1 2 7 1 1-1 11h9l1 5 4 3v-2l5 2 2 2v3h3l2-5h2l2 2 8 3 5-1 1 5h4l3-5v-6l4-1h7l1 4 6-2 7 2 2 4h2v11h3 3l4 11 2 16 1 1v9l1 1 1 10 1 21 1 10 1 7 2-4v-35l1-68h1l1 349 3 15 2 6h-2l-4-9v-3l-2-1 1-4-2-1-2-8-2-14-1-23-3-18-3-9-2-1v2l-5 5-3 5-4 2h-6l-10-3v-2l-5-1-2-5h-5l-2-4-4-1-1-1-7 1-5 1-5-1 1-4 4-1v-2l-9 1-5-2-4-7-4-2-10 1-4-4-3 1-1 5-1 6-1 9-2-1v9l-2 3v7l-2 5-1 4h-2l-1-37v-81h1l1 10v-14l1-10v-24l1-7v-45l1-2v-21l1-9 1-12v-7l-1-4 2-7v-22l2-13 3-1v-12l1-8z" fill="#4A6DA9"/>
<path transform="translate(150,402)" d="m0 0 2 2 2 7v11h7l3 1 1 4 8 1 3 5 6-3v2h2v2l3-1 5 2 4-1 2 3h5l1-2 1-7 5-1h6l4 2 9 1 3 3v2h2l1 3-1 8 1 2 4-2 4 7 2 8 4 30v14l2 18 1 11 1-6 1-1h-1v-7h1l1-97h1l1 351 3 15 2 6h-2l-4-8-2-5 1-4-2-1-4-20-1-25-3-17-3-10-4 2-6 9h-5l-1 2-6-1-9-3-5-3-5-5-4-3-4-1-1-1h-9l-2-2-1-5-9 1-5-2-3-6-1-1h-10l-3 1v-2h-2l-2-3-3 1-2 12-1 1v7l-2-1v9l-2 4-1 13-3 2-1-1-1-36v-89h1l1 12 1-25v-17l1-13v-31l1-18v-13l1-9 1-13v-6l-1-2 2-7v-17l1-17 2-3 3-3-1-9 1-8z" fill="#4A6DA9"/>
<path transform="translate(150,1362)" d="m0 0 2 2 2 7v11h8l3 2 1 3 7 1 3 6 2 1 2-4 2-1v2h2v2l3-1 5 2 4-1 2 3h7l-1-5 2-5h10l4 2 9 1 3 3v2h2l1 3-1 8 1 2 2-2h3l4 11 4 26 1 12v10l2 18 1 11 1-6 1-1h-1v-7h1l1-97h1l1 351 3 15 2 6h-2l-4-8-1-9-2-1-4-20-1-25-3-17-3-10-4 2-6 9h-5l-2 2-10-2-9-5-5-5-4-3-4-1-1-1h-9l-2-2-1-5-9 1-5-2-3-6-7-2-7 2v-2h-2l-2-3-3 1-2 12-1 1v7l-2-1v9l-2 4v7l-2 7h-3l-1-36v-89h1l1 12 1-25v-17l1-13v-31l1-18v-13l1-9 1-11v-14l1-3v-17l1-17 2-3 3-2-1-10 1-8z" fill="#4A6DA9"/>
<path transform="translate(958,321)" d="m0 0 2 3v150l-1 113-1 60-1 27-3 5-3-1-4-13-2-9-5-8v-7l-4 1v-3h-2v-2h-3l-1-4h-5l-3-2-5 1-4 2-4-3h-6l-4-3h-3l-1 4-3 1-2 6-4-1-5 2h-3v-2h-2l-3-4h-3l-3-6-4-2-3-1-6-7h-3l-5 3-2 6-2 23-1 10v8l-2 16-1 15-1 4v8l-2 2-1-2-1-35v-115h1l1 9 1-2-1-5v-18l1-9v-20l1-28v-13l1-7-1-5v-7l1-8 1-25 1-41v-8l2-15 1-11 2-4 1-4 6-1 4 3 1 8h-2v-2h-2l1 4 6 3 2 5 7 1 4 5 8 4h20l9 2 11 1h4l4 1 3 6 10 5 3 7 2-4 1 4 2-3 4 37h2l-1-10-1-11 1-3h2l-1-19v-18l1-32z" fill="#5293B3"/>
<path transform="translate(958,1282)" d="m0 0 2 2v150l-1 113-1 60-1 27-3 5-3-1-4-13-2-10-5-7-1-7-4-2-5-4v-2h-5l-5-2-4 2h-4l-5-2-5-1-3-2h-3v4l-4 1-2 6-4-1-5 2h-3v-2h-2l-5-6h-3l-2-5-6-2v-3l-3-1v-2l-5-2-5 3h-2l-3 29-1 11v8l-2 16-1 15-1 4v8l-2 2-1-2-1-35v-115h1l1 9 1-2-1-5v-18l1-9v-20l1-28v-13l1-7-1-5v-7l1-8 1-25 1-41v-8l2-15v-7l3-8 3-4h5l3 2 1 8h-2v-2h-2l1 4 7 4 3 5 6 1 3 4 8 4h20l11 2 8 1 3 2h2v-2l4 1 2 5 5 3 5 2 4 8 2-4 1 4 2-3 1 7 2 23 1 7 2-6-2-10 1-8h2l-1-37 1-33z" fill="#5293B3"/>
<path transform="translate(1808,1296)" d="m0 0 6 3v2h2v7h-3l1 4 7 3 2 5 8 1 2 2v3l6 1v2l13 1 3 1v-3l16 4 8 1 4 2 5 1v2l7 2 1 3h4l1-2 3 8 2 3 3-1 3 30 2 36 1 9 1-5 1-53 2-3v222l-1 41-1 17-2 2v3l-3-4-2-5-2-12-4-15-4-6-1-5-3 1-2-6-7-4-8-4h-5l1 3h-3v-2h-9l-6-4-1 5h-4v6l-2 2-1-3h-4l-1 2-6 1-3-4v-2l-4-2v-2h-3v-4l-8-1v-3l-3-1-2-6h-4l-4 5h-2l-2 13-1 18-1 9v8l-2 16-1 13-1 6v8l-2 2-1-2-1-35v-115h1l1 9 1-2-1-5v-18l1-9v-28l1-19v-17l1-4-1-5v-7l1-8 1-27 1-39v-8l1-4 1-18 3-9z" fill="#5394B4"/>
<path transform="translate(1807,336)" d="m0 0h1v5h2l1-3 3 1 3 6-1 3h-3l1 4 3 1v2l5 1 2 5h7l3 5 5 1v2l13 1 3 1v-3l4 1 14 4h6l4 2h5v3l6 2 2 2 4 1 1-2 3 8 2 3 3-1 3 34 2 32 1 9 1-5 1-53 2-3v222l-1 41-1 17-2 2v3l-3-4-2-5-5-25-5-8-1-5-3 1-2-6-7-4-8-4h-5l-1 3-3-2h-8l-5-4v5h-5v6l-2 2-1-3h-4l-1 2-6 1-1-4h-2v-2l-4-2v-2h-2l-1 2v-6l-8-1-1-3-3-3-1-4-6 2-2 3h-2l-2 13-1 18-1 9v8l-1 4v9l-1 3-1 12-1 7v8l-2 2-1-2-1-35v-115h1l1 9 1-2-1-6v-17l1-9v-28l1-19v-17l1-4-1-5v-7l1-8 1-27 1-39v-8l1-4 1-18 3-9z" fill="#5394B4"/>
<path transform="translate(832,1283)" d="m0 0h1l1 353 1 35 1-3v-7l1-7 1-10 2-19v-10l1-9 3-24 4-4h3l1-2 5 3 3 3 1 3 5 1 3 5 4 2 3 3v2h2v2l5-2 4-1 3 2 2-7h4v-4l-3-1h6l4 3h6l4 3 4-2 5-1 3 2 5 1 5 5 4 2h1l1 8 5 7 5 21 1 2h2l2-6 1-29 1-56 1-113h1v292l-1 22-3 20-5 19-7 18-8 16-9 15-7 10-2-1v-3l-5 2-6 5h-2v2l-16 8h-8v2h-7l1-2 6-2 4-4 3-1 5-5 7-4 5-5 3-1 2-5 6-7 7-11 4-5 6-9 3-6h2l3-9 5-2-1-4-6 3 2-8-2 1-2 5-2 2h-4l-2 10-8 3-6 2-6 1v-5l-5-2-1 6-5 2-4-2-8-1-18 2-6 1-5-1h-4l-2-2 3-1 2-4 8-2-2-2-8-1v-2h-2v-6l-7-2-3-21-1-5-3 4-1 3-3 1-4 5-2-1-2 6-3 1-1 3-3 3h-3v2l-4 1v2l-6 1-1 2h-3v2h-2l-1 2-4-2 12-7 6-5 9-12 6-13 3-16z" fill="#5084AE"/>
<path transform="translate(832,323)" d="m0 0h1l1 353 1 35 1-3v-7l1-7 1-10 2-19v-10l1-9 3-24 4-4h3l1-2 5 4 2 2 2 3 5 1 3 5 2 1 5 4v2h2v2l5-2 4-1 3 2 2-7 3-1 1-3-3-1h6l4 3h6l4 3 4-2 5-1 3 2 5 1 1 4h3v2h2l1 2h3l1 7 5 8 5 20 1 2h2l2-6 1-29 1-56 1-113h1v292l-1 22-3 20-5 19-7 18-8 16-9 15-7 10-3-4-5 1-1 3-4 3h-2v2h-2v2l-7 4-5 1-4 2-5-1v2l-3 1-5-1v-1l7-2 5-5 7-6 7-4 3-3h2v-2l3-2 4-7 4-4 8-12 3-4 4-7 3-3 2-5h2l3-9 5-2-1-4-6 3 2-8-2 1-2 5-3 2h-3l-2 10-8 3-6 2-4 1h-3l1-4-3-3h-2l-1 6-1 1-9-1-13-1-13 2-5 1-5-1-4-1-2-2 7-5 6-1-4-3h-5l-3-2v-6l-7-2-3-19-1-7-3 4-1 3-3 1-4 5-2-1-2 6-3 1-1 3-3 3h-3v2l-4 1v2l-6 1-1 2h-3v2h-2l-1 2-4-2 12-7 6-5 9-12 6-13 3-16z" fill="#5084AE"/>
<path transform="translate(1133,211)" d="m0 0h2l-1 4v3l1 3 2 1 1 11 2 1 2 6 4 6 4 1h5v3l10 5 3 3h13l13-3h12l9-1 10-1-4 4 10-3 5-3 9-2v2l-2 2 4 1-3 3 2 4h-2v2h-2l1 5-10 9-7 9-6 13-3 15-1 111-1 71v16l-1 2v7l1 7-1 1-1 8h-1l-2-11v-7l-1-4-1-21v-11l-2-1v-8l-1-1-2-16-3-11-6 2-1-3 1-10h-2l-5-5h-6l-4 2-1-5-7 1h-3v7l-2 1-2 4-4-1-1-5-9 1-6-2v-3h-2l-2 5h-3l-3-5-4-2v2l-3-1-2-4v-2l-9-1-1-4 1-7-2-2-1-6-7 1-1 16-1 5-3 3-1 18v16l-2 6 1 8v8l-1 6-1 16v14l-1 3v45l-1 13v23l-1 7v11l-1 16h-1l-1-32-1-293 2-1 1 22 1-5 1-11v-32l2-7 4-9 2-7 3-1 2-11 5-7 1-5h2l1-5 1-2h2l3-6h2v-2l5-5z" fill="#5185AF"/>
<path transform="translate(1131,1174)" d="m0 0 3 1-2 8 2-2 3 1v12l3 1 3 5 2 5 4 2h3v2l6 2 7 4 3 3h11l2-1 11-1 3-1 4 4v-3l13-2 13-1-4 4 5-1 10-5 10-2-4 4h6l-4 4 2 4-1 3-2 1-1 4-8 7-6 7-8 16-3 15-1 111-1 71v32l-1 1-1 8h-1l-2-11v-7l-1-4-1-21-1-10-1-2v-8l-1-1-2-16-3-11-6 2-1-3 1-10h-2l-3-4-8-1-4 2-1-5-7 1h-3v7l-2 1-2 4-4-1-1-5-6 2-9-3v-3h-2l-2 5h-3l-3-5-4-2v2l-3-1-2-4v-2h-7l-2-1-1-4 1-7-2-2v-6h-6l-2 1-1 16-1 5-3 3-1 18v16l-2 6 1 8v8l-1 6-1 16v14l-1 3v45l-1 13v23l-1 7v11l-1 14h-1l-1-30-1-293 2-1 1 22 1-1 1-15v-32l2-7 4-9 2-7 3-1 2-11 5-7 1-5h2l1-5 1-2h2l3-6h2v-2h3l2-6z" fill="#5085AF"/>
<path transform="translate(174,210)" d="m0 0 3 2-2 5v3l5-5-2 12v5l4 5 1 7h2v2l7 1v-2l2 1 6 7 6 3v2h13l14-2 5-1h8l9-1h9l-3 3 10-3 5-3 10-3-1 3h-2l1 2 3 1-3 3 2 4h-2v2h-2l1 5-10 9-7 9-6 13-3 15-2 207v3l-1 6-1 8-2-4-1-11-2-21v-11l-2-17-3-17-4-10-5 2-1-4 1-10h-2l-3-4-12-1-1-2h-10l-1 8-2 2h-5l-2-4-6 2-4-2h-2v-2h-4l-4 2-5-5-7-2v-4l-10-1-1-5v-6l-2-8-7 2-1 11 1 6-4 5-1 5-1 20v12l-2 6 1 3v11l-1 6-1 10v20l-1 18v30l-1 7v23l-1 18-1 20h-1l-1-42v-266h1l1 34 1-2v-7l-1-4 1-3v-12l1-6v-15l1-13v-7l1-2-2-1 1-7 5-12 1-5 5-8 1-7 2-3h2l2-8 5-8 4-6 4-2 6-10z" fill="#5185AF"/>
<path transform="translate(171,1174)" d="m0 0 3 1 1 4h2l1-4 2-1-2 9v9l5 7v5h2v2l8-1 2 2v3h2v2l7 2 2 4h13l12-2 8-1 16-1 10-1-4 4 4-1 8-3 3-2 8-2 4 1-5 1v2h5l-4 4 2 4-1 3-2 1-1 4-8 7-6 7-8 16-3 15-2 207v3l-1 6-1 8-2-4-1-11-2-21v-11l-2-17-3-17-3-8v-3l-6 3-1-4 1-10h-2l-3-4-12-1-1-2h-10l-1 9-7 1-2-4-6 2-4-2h-2v-2h-4l-2 3-3-1-3-5-8-2v-3l-10-2-1-5v-6l-2-8-7 2-1 11 1 7-5 5-1 24v12l-1 1v19l-1 6-1 10v20l-1 18v30l-1 7v23l-1 18-1 12h-1l-1-34v-266h1l1 34 1-2v-26l1-6v-15l1-13-1-13 6-17 3-8 3-5 2-7 1-2h2l2-9h2l2-6 7-8 3-3z" fill="#5185AF"/>
<path transform="translate(1919,1280)" d="m0 0h1v447l-1 21-3 20-4 15-4-3-9 2-1 3-1-3v-2l-5 2h-2v6l-4 4-4 1-4 3-7 2h-3l1-4-6-5 1 2v7l-6 1-7-2h-4-11l-5 2-3-1-6 1-5-1h-3v-4l4-4 6-1-3-2-7-1v-2h-2v-6h-6l-4-18v-8l-2-2-1 4h-2v3l-3 1-4 5-2-1-2 6-3 1-2 4h-2v2h-3v2l-4 1v2l-6 1-1 2h-3v2h-2l-1 2-4-2 12-7 6-5 9-12 6-13 3-16 1-449h1l1 353 1 35 1-3v-7l2-12 1-17 1-7v-10l1-9 1-13 3-13h2l2-4 3-3 4 4 2 4 2 1v3l3-1 5 2v4h3l7 8v2l7-3h4l1 2 2-7 4-1 1-4 4 2 5 1 6 1v2l2-1v-3l7 1 12 6 3 3 1 4h3l2 6 4 7 4 20 2 7 2 5v-2l3-1-1-3 1-14 1-41z" fill="#5084AE"/>
<path transform="translate(1919,320)" d="m0 0h1v447l-1 21-3 20-4 15-2-2h-7l-4 1-1 3-1-3v-2l-5 2h-2l-1 9-8 1v2l-3 2-6 1-1 2-3-1 1-4-4-4-1 1v7l-6 1-8-3-1 2-2-1h-12l-9 2-9-1h-4l2-6 3-2 6-1-3-2-7-1v-2h-2v-6l-7-2-3-17v-7l-2-2-1 5-5 3-4 5-2-1-2 6-3 1-1 3-3 3h-3v2l-4 1v2l-6 1-1 2h-3v2h-2l-1 2-4-2 12-7 6-5 9-12 6-13 3-16 1-449h1l1 353 1 35 1-3v-7l2-12v-7l1-2v-8l1-7v-10l1-9 1-13 3-13h2l2-4 1-1h5l2 6 3 1v3l3-1 5 2 1 4h2l4 4v2h2l1 4 7-3h4l1 2 2-7h5v-5l4 2 5 1 6 1 1-1 4-1 7 2 10 6 2 2 1 4h3l2 6 4 7 4 21 3 9 1 1 1-2h2l-1-3 1-14 1-41z" fill="#5084AE"/>
<path transform="translate(263,1096)" d="m0 0h3l1 3h7l10-2h7l3-1h11l9 1 8 4v3l-14 6-8 6h-2v2l-3 2 2 5 3 8 4 5 8 4 13 3 4 1 11 1 5 4 4-1 2-2 5 4 7 1-2 5h3l2-4 7 2 3 3h11l5 4 9 2 10 2 2 3 6 2 4 3 1-2h5l6 3h6l3 3 25 5-4 3 10 1-1-2h8v4l10 2h16l16 2 2 1 10 1h13l6 2 5 1-1 3-10 2-28 1-28 2-35 2-3 1-5-2v2h-7v3l5 1h305l2 2-444 1-16 4-10 6h-2l-1-4 3 1-1-6-1-2 4-2-4-1v-2h-2l-7 2-5 3-9 3-3-1 7-4-15 1-10 1-11 1-11 2-11-1-3-3-6-3v-2h-2l-3-4-5 1-2-1v-2h-2l-2-7-4-5v-9l2-8-2 4-3 1-1-2 1-3h-3l-6 10-9 9-2 5h-2l-2 9h-2l-3 11-5 10-3 9-3 10 1 12-1 16v12l-1 12v21l-1 1-1 8h-1v-42h-2v-21l3-24 6-23 8-20 11-21 11-16 13-15 12-12 14-11 15-10 14-8 19-8z" fill="#5394B4"/>
<path transform="translate(1223,1096)" d="m0 0h3l1 3 17-2h7l3-1h11l9 1 9 4-1 3-14 6-8 6h-2v2l-3 2 2 5 3 8 3 3v3l6 1 3 2 13 3 4 1 11 1 5 4 4-1 2-2 5 4 7 1-2 4 3 1 4-4 5 2 3 3h10l4 2v2l10 1 4 2h6l3 4 6 2 6 5 2 1v2h2v-4l-5-1v-2h5l6 3h6l1 3 20 4 7 1-4 3 10 1-1-2h8v2l-2 1 12 3h16l16 2 2 1 10 1h13l6 2 5 1-1 3-10 2-28 1-28 2-24 1-11 1-3 1-5-2v2h-7v3l5 1h305l2 2-444 1-16 4-10 6h-2l-1-4 3 1-1-3h2l-3-5 4-2h-6l3-4-10 3-8 4-9 2 1-2 6-3-15 1-10 1v3l-4-2h-3l-11 1-6 1h-7l-3-2v-2l-4-1-7-4-2-1v-2l-5 1-4-4-3-7-3-3-1-9-1-2h-2l-2 1 3-9h-3l-5 9h-3v2h-2l-3 6h-2l-2 7h-2l-1 7-4 6-3 10-2 1-2 7-4 9-2 9v35l-1 10-1 5-2 2-1-27h-1l1-17 4-22 5-17 8-19 10-19 12-17 12-14 12-12 14-11 15-10 14-8 19-8z" fill="#5394B4"/>
<path transform="translate(251,140)" d="m0 0h4l1 4-3 5h6l5-2 3 1v4l-4 1-1 5-5 1h4l6-2v2h-2l-2 4h-2v2h-3l-2 5-1 2 9 1v4l5 8-1 3 4-1 3 2 1 4-7 1-2 3h3v2h2l1 5 10 2 3 2 8 1 6 2 3-1 2 3 15 1 5 1 14 4 11 3 15 2 3 2 12 1 1 1h8l1 3h9l8 2 23 1 11 1 4 2 7 2v2l21 1v1h39l4 2-23 2-23 1h-12v2l-7-1-4 1h-5l-1 1 2 2v1h303l9 1v1l-444 1-16 4-10 6h-2l-1-4h2l1-3-2-4 3-2-4-1 2-3-10 3-8 4-6 1 3-3h-14l-3 1h-11l-2 1-18 2h-7l-3-3-6-3-6-5-1-1-7-1v-2h-2l-3-8-3-4v-8l2-8-3 4-2 4-1-2 1-7h2l-1-4-4 4-6 10-4 1-2 5-3 3-4 8-2 6h-2l-2 10-6 10-2 9-3 7-1 6 1 4v12l-1 8v14l-1 12v8l-1 2 1 6v5l-1 1-1 8h-1v-42h-2v-21l3-24 6-23 8-20 11-21 11-16 13-15 12-12 14-11 15-10 16-9z" fill="#5394B4"/>
<path transform="translate(1211,140)" d="m0 0h4l1 4-2 4 5 1 5-2 3 1v4l-4 1-1 5-5 1 3 1 3-1v-2h4v2h-2l-2 4h-2v2h-3l-2 5-1 2 9 1 1 5 4 7-1 3 5-1 3 4v2l-7 1-2 3h3v2h2l2 5 9 2 2 2 9 1 6 2h3v2l10 1 3 1 7-1 6 2 10 3 11 3 15 2 3 2 12 1 2 1h7l1 3h9l8 2 23 1 5 1h6l4 2 7 2v2l21 1v1h40l3 2-21 2-25 1h-13l-1 2-5-1-4 1-6 1 2 2v1h303l9 1v1l-444 1-16 4-10 6h-2l-1-4h2l1-3-2-4 3-2h-4l1-3 1-1-10 3-8 4-6 1 3-4-14 1-3 1h-12l-13 3h-13l-5-4-8-5-1-2h-7l-6-7-1-7-3-1v-11h-4l1-6-1-2h2v-3l-4 4-6 9h-2v2h-2l-3 6h-2l-2 7h-2l-1 7-4 6-3 10-2 1-2 7-4 9-2 9v35l-1 10-1 5-2 2-1-27h-1l1-17 4-22 5-17 8-19 10-19 12-17 12-14 12-12 14-11 15-10 16-9z" fill="#5394B4"/>
<path transform="translate(958,321)" d="m0 0 2 3v40l-2 136v32l-1 29-3 4-2-3-3-34-1-15h-2l-1-7v-2l-7-3-5-4-2-5-7-2-1-3h-5l-2 2h-4l-1-4-4 2v2h-2l-5-7-4 1-1 4-10-2h-2l-3-4h-7l-2-2-5-2-2-3 2-2h3l2 2h3v-4l-9-2-5-5-3-4-3-9-4-3v2h-2l1 4-4 2v7l-1 9v9l-1 2-2 56-1 16-1 19 1 5v9l-1 8-1 5v11l2 1-2 8-1 20-1 3v4l-2 3-1-21v-68h1l1 9 1-2-1-5v-18l1-9v-20l1-28v-13l1-7-1-5v-7l1-8 1-25 1-41v-8l2-15 1-11 2-4 1-4 6-1 4 3 1 8h-2v-2h-2l1 4 6 3 2 5 7 1 4 5 8 4h20l9 2 11 1h4l4 1 3 6 10 5 3 7 2-4 1 4 2-3 4 37h2l-1-10-1-11 1-3h2l-1-19v-18l1-32z" fill="#55A2B8"/>
<path transform="translate(958,1282)" d="m0 0 2 2v39l-2 136v33l-1 29-3 4-2-3-3-34-1-15h-2l-1-7 1-2-7-2-3-3v-2h-3l-2-5-7-2-3-3-4 1-5 1-1-4-4 2v2h-2l-5-7-4 1-1 4h-4v-2h-8l-4-4h-6l-2-2-5-2-2-3 2-2h3l2 2h3l-1-5h-6l-6-4-4-6-3-9-4-2-2 6-3 1-1 5 1 2-1 9v9l-1 2-2 56-1 16-1 19 1 6-1 16-1 5v11l2 1-2 8-1 18-1 5v4l-2 2-1-20v-68h1l1 9 1-2-1-5v-18l1-9v-20l1-28v-13l1-7-1-5v-7l1-8 1-25 1-41v-8l2-15v-7l3-8 3-4h5l3 2 1 8h-2v-2h-2l1 4 7 4 3 5 6 1 3 4 8 4h20l11 2 8 1 3 2h2v-2l4 1 2 5 5 3 5 2 4 8 2-4 1 4 2-3 1 7 2 23 1 7 2-6-2-10 1-8h2l-1-37 1-33z" fill="#55A2B8"/>
<path transform="translate(1807,336)" d="m0 0h1v5h2l1-3 3 1 3 6-1 3h-3l1 4 3 1v2l5 1 2 5h7l3 5 5 1v2l13 1 3 1v-3l4 1 14 4h6l4 2h5v3l6 2 2 2 4 1 1-2 3 8 2 3 3-1 3 34 2 32 1 9 1-5 1-53 2-3v149l-1 5-1 16-4-2-3-19-2-36-1-6-2-1v-5l1-3-7-1-1-2 2-1-1-2h-5v-3h-2l-1-3-2-1-2 2-4-4v-2h-7l-1 3-3-1v-4l-7 4v-2h-2l-2-3v-3l-4 1-3 6-4-2-7-1v-2l-12-3-6-3v-3l4-1 1 2 5-2-1-3-9-1-5-5-3-7-4-7-2-2-2 2v4h-2v2h-2l-1 5 1 2-1 9v9l-1 3-2 52v9l-1 10-1 19 1 6-1 16v3l-1 5 1 3 1 6-2 8-1 26-2 8h-1l-1-46v-47h1l1 9 1-2-1-6v-17l1-9v-28l1-19v-17l1-4-1-5v-7l1-8 1-27 1-39v-8l1-4 1-18 3-9z" fill="#55A2B8"/>
<path transform="translate(1808,1296)" d="m0 0 6 3v2h2v7h-3l1 4 7 3 2 5 8 1 2 2v3l6 1v2l13 1 3 1v-3l16 4 8 1 4 2 5 1v2l7 2 1 3h4l1-2 3 8 2 3 3-1 3 30 2 36 1 9 1-5 1-53 2-3v149l-1 5-1 16-4-2-3-19-2-36-1-7h-2v-5l1-3-7-1-1-2 2-1-1-2h-5v-3h-2l-1-3-2-1-2 2-4-4v-2h-7l-1 3-3-1v-4l-7 4v-2h-2l-2-3v-3l-4 1-3 6-4-2-7-1-3-3-9-2v-2h-5l-2-3 2-2h3l1 2h5l-1-5-9-1-7-8-3-8-3-4-3 1v4h-2v2h-2l-1 5 1 2-1 9v9l-1 3-2 52v9l-1 10-1 19 2 10-2 12-1 5 1 10 1 2-2 8-1 22-1 5-2 2-1-41v-47h1l1 9 1-2-1-5v-18l1-9v-28l1-19v-17l1-4-1-5v-7l1-8 1-27 1-39v-8l1-4 1-18 3-9z" fill="#55A2B8"/>
<path transform="translate(1718,128)" d="m0 0h16l25 2 23 5 22 8 20 10 15 10 13 10 13 12 12 13 13 18 10 18 8 18 7 23 4 24v12l-1 20-2 4-2-1-2-10-2-31-3-8-4-10-5-17-2-2-1-3-3-1-3-7-3-1-6 3-9-6-8-2-2-4-1-3-8-3-1-4-5-1h-9l-7-4-12-3-5-2-4-6h-6l-10-4-2-4-8-3-2-2-9-1-3-5v-2l-6-1-2-7-5-2-3-1v-2h-2l-2-6-5-2-1-5-2-3v-5l9-1 6-3h5l2 4h2v-2l2-1 12 1 1-3-16-8-11-3h-12l-32-2-13-1-4-3h-10v-2z" fill="#59B7BF"/>
<path transform="translate(758,128)" d="m0 0h16l25 2 23 5 22 8 20 10 15 10 13 10 13 12 12 13 13 18 12 22 8 20 5 17 4 24v7l-2 6-2 1-2-5-1-12-3-10-4-7-2-9-4-9-1-7-6-3-4-9-4 1-2 3-5-1-7-5h-6l-2-5-2-3-8-3-1-5-11-1-4 1-9-5-12-3-6-7h-6l-10-4-2-4-7-3-2-2h-7l-4-1-2-7-6-1-2-7-5-2-3-1v-2h-2l-2-6-5-2-2-6-1-7 9-1 9-4 4 3v2h2v-2l2-1 12 1 1-3-16-8-11-3h-12l-32-2-13-1-4-3h-10l1-2z" fill="#59B7BF"/>
<path transform="translate(1720,1088)" d="m0 0h13l26 2 23 5 22 8 20 10 15 10 13 10 13 12 12 13 13 18 10 18 8 18 7 23 4 24v12l-1 20-2 4-2-1-2-10-2-31-3-8-4-10-5-17-2-2-1-3-3-1-2-8-5 1-3 2-5-1-3-3-6-3h-5l-4-8-7-2-3-5-8-1-4 1-2-1v-2l-6-1v-2l-7-1-9-3-4-6-10-2-6-3-2-3-7-3-1-3-11-1-3-4v-2l-6-1-3-7-7-3v-2h-2l-2-7-4-1-3-7-2-2v-4l10-1 3-2h14l1-1 9 1 4 1 2-2-4-4-13-5-11-4-15-1-25-1 6-3-5-1z" fill="#59B7BF"/>
<path transform="translate(758,1088)" d="m0 0h15l26 2 23 5 22 8 20 10 15 10 13 10 13 12 12 13 13 18 12 22 8 20 5 17 4 24v7l-2 6-2 1-2-5-1-12-3-10-4-7-2-9-4-9-1-7-6-3-4-9-4 1-1 3-3 1-3-1-3-3-10-3-1-3h-2v-4l-9-4-1-4-8-2-7 1-8-5-9-2-5-2-5-6-14-3-4-5-7-3-1-3-11-1-3-4v-2l-5-1-1-5h-2l-3-3-5-2v-2h-2l-2-7-4-1-3-7-2-2v-4l10-1 3-2h14l1-1 9 1 4 1 2-2-4-4-13-5-11-4-15-1-25-1v-1l7-1v-2h-7l3-1z" fill="#59B7BF"/>
<path transform="translate(263,1096)" d="m0 0h3l1 3h7l10-2h7l3-1h11l9 1 8 4v3l-14 6-8 6h-2v2l-3 2 2 5 3 8 4 5 8 4 13 3 4 1 11 1 5 4 4-1 2-2 5 4 7 1-2 5h3l2-4 7 2 3 3h11l5 4 9 2 10 2 2 3 6 2 4 3 1-2h5l6 3h6l3 3 25 5-4 3 10 1-1-2h8v4l10 2h16l16 2 2 1 10 1h13l6 2 5 1-1 3-10 2-28 1h-22l-21-1h-6v-1l-18-1-2-1v-2l-8-1-1-1-11-1-3-1-26-1-7-2-7-1-1-1-8-1-1-1h-8l-7-3-16-2-12-3-12-4-1-1h-10l-10-2-1-2-4 1-5-3h-6l-5-3-11-2-1-5-4-4 2-2 7-2-7-3-1-7-1-4-4-2v-3l-5-1-1-4 10-10-4 1-1 1h-5l3-2 5-5h3l-1-5-4 1h-7v-3l1-5-2-1z" fill="#549AB5"/>
<path transform="translate(1223,1096)" d="m0 0h3l1 3 17-2h7l3-1h11l9 1 9 4-1 3-14 6-8 6h-2v2l-3 2 2 5 3 8 3 3v3l6 1 3 2 13 3 4 1 11 1 5 4 4-1 2-2 5 4 7 1-2 4 3 1 4-4 5 2 3 3h10l4 2v2l10 1 4 2h6l3 4 6 2 6 5 2 1v2h2v-4l-5-1v-2h5l6 3h6l1 3 20 4 7 1-4 3 10 1-1-2h8v2l-2 1 12 3h16l16 2 2 1 10 1h13l6 2 5 1-1 3-10 2-28 1h-22l-21-1h-6-1-7v-1l-10-1-2-1v-2h-6l-3-2-11-1-3-1-27-1-6-2-6-1-10-2-1-1h-8l-7-3-16-2-22-6-3-2h-10l-10-2-1-2-4 1-5-3h-6l-6-4-10-1-1-8-3-1 3-3h5l-1-2-6-2-2-10v-2h-5l1-4h-4l-2-5 10-10-4 1-5 1 7-7h3l-1-5-10 1-2-2 2-6-2-1z" fill="#549AB5"/>
<path transform="translate(1251,137)" d="m0 0 21 1 6 3-1 4-8 4-5 4-4 4-5 3 3 5 1 7 5 6 8 4 8 2 4 2h17l3 5 4 1 2-3 4 2 1 1 7 1-3 3 5 2 3-4 7 2 2 2 11 1 3 2v2l19 3 4 4v3h3v-2l4 2 3 3 6 3h2l1-3h10v3h9l6 2 13 3 13 2-2 3 12 3h15l15 1 8 2 6 1h12l2 1 16 2-1 3-15 2h-10l-20 1-14-1h-42v-1l-11-1-3-3-8-2-2-1h-8l-3-1-25-1-6-2-9-1-2-2h-6l-2-1-12-1-3-2-15-2-11-3-12-3-4-2-8 1-7-2-5-1v-2l-5 1-4-2-9-1-2-2-9-2-2-2v-4h-2v-2h-3l2-4h7l-3-5h-5l-1-5-4-6 1-4h-11l5-8h3v-2l4-4h2v-2h-4v2l-5 2-1-2 5-1 1-5 4-1v-4h-7l-1 2-6-2 4-7h7l1-2 9 1z" fill="#549BB6"/>
<path transform="translate(292,137)" d="m0 0 20 1 6 4-1 3-8 4-5 4-4 4-4 2 1 5 1 1 1 7 1 3h2l1 4 6 1 3 2 8 2 4 2h17l3 5 4 1 2-3 4 2 1 1 7 1-3 3 5 2 3-4 6 2 5 2 9 1 3 2v2l19 3 4 4v3h3v-2l4 2 3 3 4 1v3l4-1 1-3h10v3h9l6 2 13 3 11 1 2 2-2 2 12 3h15l15 1 8 2 5 1h13l2 1 16 2-1 3-15 2h-10l-20 1-14-1h-38v-1l-15-1-3-3-8-2-2-1-11-1-25-1-6-2-9-1-2-2h-7l-1-1-12-1-3-2-15-2-11-3-14-4-5-1h-7l-8-1-3-3-4 1-4-2-10-2-7-2-6-1 1-6h-2v-2h-3l2-4 6-1v-3l-7-1-1-5-3-5-2-2 2-3h-11l5-8h3v-2l4-4h2v-2l-9 4-1-2 5-1 1-5 4-1v-4h-7l-1 2-6-1 2-5 3-3h6l1-2 9 1z" fill="#549BB6"/>
<path transform="translate(1810,1407)" d="m0 0 4 2 4 7 3 7 4 4 9 1 2 4-3 3-4-1v-2l-4 3 6 2v2l9 1 4 3 7 2h3l4-6 3 1 2 6h4l5-2 1 4h2l1-2h7l2 5h2l2-2 3 2v3h2l2 2 3 1 1-2 1 4-2 2 7 2 1 3h-2v5h2l2 9 2 34 3 19 2 1 1-15 1-5h1v33l-1 5v12l-1 16-4 1-2-9-3-32-3-19-2-6-1-2-4 1v-2h-2l-3-6-7-2-1-7 2-3 5-2h-8l-2-4-4-2 1-5v-5l-1 1h-2v2l-6 2 1 5h-5l-4 1-3-2-3 1-1 5 1 4-4 4-4-4v-2l-5 3-8-1-1-3h-7l-3-5v-2l-4-1-1-7-3-1-1-3-6-6-2 7 1 4-3 17-2 5 1 3-2 9v13l-1 10-2 2-1-8 1-21 1-10 1-28 1-29 1-1v-15-4l2-6h2v-2h2l-1-4z" fill="#549AB5"/>
<path transform="translate(1810,446)" d="m0 0 5 4 3 6 3 7 4 4 9 1 2 4-4 3-3-1v-2l-4 2 3 3 5 2 7 1 3 2v2h7l4 1 4-6 3 1 2 6h4l5-2 1 4h2l1-2h7l2 5h2l2-2 3 2v3h2l2 2 3 1 1-2 1 4-2 2 7 2 1 3h-2v5l3 1 1 8 2 34 3 19h2l1-14 1-5h1v33l-1 5v12l-1 16-4 1-2-9-3-32-3-19-2-3v-5l-5 1v-2h-2l-3-5v-2l-7-1-1-5 2-5 5-2h-8l-2-4-4-2 1-5v-5l-1 1h-2v2l-6 2 1 5h-5l-4 1-3-2-3 1-1 5 1 4-4 4-4-4v-2l-5 3h-7l-2-4h-7l-2-2-1-5-4-1-1-7-3-1-1-3-4-3-2-3-2 7 1 4-3 17-2 5 1 3-2 9v13l-1 10-2 2-1-8 1-21 1-10 1-28 1-29 1-1v-15-4l2-6h2l2-7z" fill="#549AB5"/>
<path transform="translate(850,1407)" d="m0 0 4 2 3 5 2 7 4 5 5 2h5l2 4-1 2-4 1-1-3-4 2 2 3 5 2 2 1 7 1 3 3 7 1v2h4l1-5 4-1 5 6 1 1 2-3 4-1v5l5-2 4-1 4 4 7 1 1 6h3l3 4 7 3v9h2l3 23 2 26 1 2 2-3 1-29h1v52l-1 27-4 2-3-16-4-31-3-13-5 1v-2l-3-1v-7l-6 1-3-3v-6l2-2 4-2h-5l-2 1-2-1v-3l-5-1 2-3-1-8-6 4-5-1v2l-4-1-3 5-1-2-4 2-2 3 2 4-1 4-3 1-1 2-3-2v-2h-9l-5-2v-2h-7l-2-2-1-5h-4l-2-7-2-1-1-5-4-1-1-3-1 3-2 2 1 5-1 8-2 9-2 5 1 3-2 8v14l-2 12-2-4 1-25 1-10 1-28 1-29 1-1v-14l1-4-1-2 2-5 3-2 1-5z" fill="#549AB5"/>
<path transform="translate(850,447)" d="m0 0 4 2 3 5 2 7 4 5 5 2 6 1 2 2-2 3-4 1-1-3-4 2 2 3 5 2 2 1h6l3 3v2l6-1 2 2 4 1 1-5 4-1 5 6 1 1 2-3 4-1v5l5-2 4-1 4 4 7 1 1 6 4 2 2 2 6 2 2 2-1 5v3h2l3 23 2 26 1 2 2-3 1-29h1v51l-1 28-4 2-3-16-4-31-3-13-5 1v-2h-2l-1-6v-2l-6 1-3-3v-6l2-2 4-2h-5l-2 1-2-1v-3l-5-1 2-3-1-8-6 4-5-1v2l-5-2-2 6-1-2-4 2-1 3h-2l3 4-1 4-4 3-3-3-13-2-1-3h-7l-2-2-1-5h-4l-1-8-3-1-5-5-1-3-1 3-2 2 1 5-1 8-2 9-1 6-2 10v14l-2 12-2-4 1-25 1-10 1-28 1-29 1-1v-14l1-9 4-4v-4h2z" fill="#549AB5"/>
<path transform="translate(1904,1783)" d="m0 0 6 3 1-2-2 9-9 21-9 16-12 17-2 1 1-7-5 3-3 3-5 2v2l-9 5-9 3h-6l-1 2h-6l1-2 7-3 2-3 5-3 9-6h2l2-4 6-5 4-6 6-7 6-9 3-4 4-7h2l3-9 3-1 2-6z" fill="#5186AF"/>
<path transform="translate(1904,823)" d="m0 0 6 3 1-2-2 9-9 21-9 16-11 16-2-1v-3l-5 2-3 3h-3v2h-2v2l-9 6-5 1-1 1-8 1-1 1h-7v-1l7-1 2-4 2-2h3l2-4 10-6 5-5 3-1 2-6h2v-2l4-4 6-10 5-6 3-5 5-7 2-4 2-1 3-8z" fill="#5186AF"/>
<path transform="translate(132,286)" d="m0 0 2 4 1 4v12l-1 8v14l-1 12v8l-1 2 1 6v5l-1 1-1 8h-1v-42h-2v-21l2-18z" fill="#5293B3"/>
<path transform="translate(958,321)" d="m0 0 2 3v40l-1 60-3-4-2-10 1-8h2l-1-19v-18l1-32z" fill="#559FB7"/>
<path transform="translate(958,1282)" d="m0 0 2 2v39l-1 61-3-4-2-10 1-8h2l-1-37 1-33z" fill="#559FB7"/>
<path transform="translate(1215,425)" d="m0 0h1v235h-1l-1-135-1-4v-7l1-2v-19z" fill="#455BA4"/>
<path transform="translate(255,1383)" d="m0 0h1v240h-1l-1-133-1-2 1-1h-1v-7h1z" fill="#455EA4"/>
<path transform="translate(255,423)" d="m0 0h1v240h-1l-1-133-1-2 1-1h-1v-7h1z" fill="#455EA4"/>
<path transform="translate(490,128)" d="m0 0h149v1h-19v2l-4-1v1h-7l-2-1-10-1v2h-7-1-8l-5-1-5 1h-8l-4-1-69-1z" fill="#59B6BE"/>
<path transform="translate(1450,128)" d="m0 0h149v1h-19l-1 2v-2l-8 1h-3l-11-1v2h-6l-2-1-2 1-11-1-5 1h-8l-4-1h-17l-52-1z" fill="#59B7BF"/>
<path transform="translate(1215,425)" d="m0 0h1v104l-2-1-1-14 1-2v-19z" fill="#4762A6"/>
<path transform="translate(1801,540)" d="m0 0 3 1-2 11v13l-1 10-2 2-1-8 1-21z" fill="#559BB6"/>
<path transform="translate(1801,1501)" d="m0 0h3l-2 11v13l-1 10-2 2-1-8 1-21z" fill="#559BB6"/>
<path transform="translate(841,1500)" d="m0 0 3 1-2 10v14l-2 12-2-4 1-25z" fill="#559BB6"/>
<path transform="translate(1176,1394)" d="m0 0 11 1 1 6-5 2-2-3-5-3z" fill="#5185AF"/>
<path transform="translate(1767,1229)" d="m0 0 5 1 2 1v2l4 2v2l4 2 2 7-2 1-8-11-7-6z" fill="#59B7BF"/>
<path transform="translate(1179,434)" d="m0 0 8 1 1 6-5 2-2-3-5-3z" fill="#5185AF"/>
<path transform="translate(807,269)" d="m0 0 5 1 6 5v2l4 2 2 7-2 1-8-11-7-6z" fill="#59B7BF"/>
<path transform="translate(807,1229)" d="m0 0 5 1 2 1v2l4 2v3l4 2 2 6-2 1-8-11-7-6z" fill="#59B6BE"/>
<path transform="translate(1793,1568)" d="m0 0h1l1 40 1 4-2 2-1-1z" fill="#5397B4"/>
<path transform="translate(1767,269)" d="m0 0 6 2 5 4 6 9-1 3-4-5-9-10z" fill="#59B7BF"/>
<path transform="translate(192,422)" d="m0 0h3v2h2v4h5l-1 4-5-1-1-3-4-3z" fill="#4B6EAA"/>
<path transform="translate(1730,154)" d="m0 0h8l-2 4-5 1h-5l1-4z" fill="#59B7BF"/>
<path transform="translate(220,1395)" d="m0 0 6 1 1 5-7-1-3-2v-2z" fill="#5084AE"/>
<path transform="translate(220,435)" d="m0 0 6 1 1 5-7-1-3-2v-2z" fill="#5084AE"/>
<path transform="translate(1729,1115)" d="m0 0h7l-1 4-6 1-3-1v-3z" fill="#59B7BF"/>
<path transform="translate(1845,1582)" d="m0 0 6 1 2 5h-3l-9-2v-2z" fill="#5186AF"/>
<path transform="translate(192,1382)" d="m0 0 5 2v4l5 1-1 3-5-1-1-3-4-3z" fill="#4B6EAA"/>
<path transform="translate(1467,908)" d="m0 0 12 1 3 2v2l-7-1-4 1z" fill="#455BA4"/>
<path transform="translate(507,908)" d="m0 0 12 1 3 2v2l-5-1h-2l-4 1z" fill="#455BA4"/>
<path transform="translate(775,153)" d="m0 0 3 1-2 1v3l-5 1-2-1-3 1v-3z" fill="#59B7BF"/>
<path transform="translate(769,1115)" d="m0 0h7l-1 4-7 1-2-1 1-3z" fill="#59B7BF"/>
<path transform="translate(1794,332)" d="m0 0 2 1 1 4-1 1v15l-3-1z" fill="#59B6BE"/>
<path transform="translate(1794,1292)" d="m0 0 2 1v20l-3-1z" fill="#59B6BE"/>
<path transform="translate(1844,622)" d="m0 0 7 1 2 5-11-2-1-2z" fill="#5185AF"/>
<path transform="translate(130,350)" d="m0 0h2l1 6v5l-1 1-1 8h-1z" fill="#5394B4"/>
<path transform="translate(1216,1734)" d="m0 0h1l3 15 2 6h-2l-4-9v-3l-2-1 1-1z" fill="#4E7DAE"/>
<path transform="translate(130,1331)" d="m0 0 3 4-1 4v4l-1 10h-1z" fill="#5394B4"/>
<path transform="translate(834,556)" d="m0 0 2 4v6l1 3-1 1-1 7h-1l-1-20z" fill="#5AAEBC"/>
<path transform="translate(130,371)" d="m0 0 3 4-2 1 2 6-1 5-1 6h-1z" fill="#5394B4"/>
<path transform="translate(1223,1096)" d="m0 0h3l2 5-2 2-4-1-1-4z" fill="#5395B4"/>
<path transform="translate(1794,556)" d="m0 0 2 4v6l1 3-1 1-1 7h-1l-1-20z" fill="#5AAEBC"/>
<path transform="translate(488,1861)" d="m0 0 6 1v5l-7-1z" fill="#4B6EAA"/>
<path transform="translate(263,1096)" d="m0 0h3l1 6-4 1-2-5z" fill="#5395B4"/>
<path transform="translate(928,643)" d="m0 0 6 1 1 3-3 3v-2h-2v-2l-3 1-1-3z" fill="#5394B4"/>
<path transform="translate(928,1603)" d="m0 0 5 1 1 4-2 2v-2h-2v-2l-3 1-1-3z" fill="#5394B4"/>
<path transform="translate(256,781)" d="m0 0h2l4 14h-2l-4-8-1-5z" fill="#4D79AD"/>
<path transform="translate(256,1741)" d="m0 0h2l4 14h-2l-4-8-1-5z" fill="#4D79AD"/>
<path transform="translate(1467,1868)" d="m0 0 5 1h7l2 2h-3l-7 2z" fill="#455BA4"/>
<path transform="translate(1449,1861)" d="m0 0 4 2 1 4-7-1v-4z" fill="#4B6EAA"/>
<path transform="translate(1449,911)" d="m0 0h6v2h2l1 3-4 1-5-5z" fill="#4B6EAA"/>
<path transform="translate(1447,902)" d="m0 0h5l2 5-7-1z" fill="#4B6EAA"/>
<path transform="translate(487,902)" d="m0 0h5l2 5-7-1z" fill="#4B6EAA"/>
<path transform="translate(507,1868)" d="m0 0 14 2-1 2h-2v-2l-7 3z" fill="#455BA4"/>
<path transform="translate(1767,1778)" d="m0 0m-2 1 2 1-2 3h-3v2h-2l-1 2-4-2z" fill="#528FB2"/>
<path transform="translate(807,1778)" d="m0 0m-2 1 2 1-2 3h-3v2h-2l-1 2-4-2z" fill="#528FB2"/>
<path transform="translate(489,911)" d="m0 0h6v2h2l1 3h-6z" fill="#4B6EAA"/>
<path transform="translate(1767,818)" d="m0 0m-2 1 2 1-2 3h-3v2h-2l-1 2-4-2z" fill="#528FB2"/>
<path transform="translate(1537,128)" d="m0 0h10v3l-10-1z" fill="#59B5BE"/>
</svg>
